<svg id="visual" viewBox="0 0 900 600" width="900" height="600" xmlns="http://www.w3.org/2000/svg" xmlns:xlink="http://www.w3.org/1999/xlink" version="1.1"><rect x="0" y="0" width="900" height="600" fill="#121212"></rect><path d="M0 354L21.5 364C43 374 86 394 128.8 396C171.7 398 214.3 382 257.2 378.8C300 375.7 343 385.3 385.8 390.7C428.7 396 471.3 397 514.2 388.7C557 380.3 600 362.7 642.8 354.7C685.7 346.7 728.3 348.3 771.2 354.3C814 360.3 857 370.7 878.5 375.8L900 381L900 601L878.5 601C857 601 814 601 771.2 601C728.3 601 685.7 601 642.8 601C600 601 557 601 514.2 601C471.3 601 428.7 601 385.8 601C343 601 300 601 257.2 601C214.3 601 171.7 601 128.8 601C86 601 43 601 21.5 601L0 601Z" fill="#1cdf63"></path><path d="M0 392L21.5 401.2C43 410.3 86 428.7 128.8 433.2C171.7 437.7 214.3 428.3 257.2 425.3C300 422.3 343 425.7 385.8 429C428.7 432.3 471.3 435.7 514.2 429.2C557 422.7 600 406.3 642.8 400.5C685.7 394.7 728.3 399.3 771.2 402.2C814 405 857 406 878.5 406.5L900 407L900 601L878.5 601C857 601 814 601 771.2 601C728.3 601 685.7 601 642.8 601C600 601 557 601 514.2 601C471.3 601 428.7 601 385.8 601C343 601 300 601 257.2 601C214.3 601 171.7 601 128.8 601C86 601 43 601 21.5 601L0 601Z" fill="#1bd35d"></path><path d="M0 461L21.5 460.8C43 460.7 86 460.3 128.8 462.2C171.7 464 214.3 468 257.2 466C300 464 343 456 385.8 458.2C428.7 460.3 471.3 472.7 514.2 474.2C557 475.7 600 466.3 642.8 464.2C685.7 462 728.3 467 771.2 463.7C814 460.3 857 448.7 878.5 442.8L900 437L900 601L878.5 601C857 601 814 601 771.2 601C728.3 601 685.7 601 642.8 601C600 601 557 601 514.2 601C471.3 601 428.7 601 385.8 601C343 601 300 601 257.2 601C214.3 601 171.7 601 128.8 601C86 601 43 601 21.5 601L0 601Z" fill="#19c757"></path><path d="M0 505L21.5 502.8C43 500.7 86 496.3 128.8 492.8C171.7 489.3 214.3 486.7 257.2 486.7C300 486.7 343 489.3 385.8 489.8C428.7 490.3 471.3 488.7 514.2 487.3C557 486 600 485 642.8 486.7C685.7 488.3 728.3 492.7 771.2 500.3C814 508 857 519 878.5 524.5L900 530L900 601L878.5 601C857 601 814 601 771.2 601C728.3 601 685.7 601 642.8 601C600 601 557 601 514.2 601C471.3 601 428.7 601 385.8 601C343 601 300 601 257.2 601C214.3 601 171.7 601 128.8 601C86 601 43 601 21.5 601L0 601Z" fill="#17bb51"></path><path d="M0 574L21.5 565.8C43 557.7 86 541.3 128.8 534.3C171.7 527.3 214.3 529.7 257.2 533C300 536.3 343 540.7 385.8 546.2C428.7 551.7 471.3 558.3 514.2 560.2C557 562 600 559 642.8 554.5C685.7 550 728.3 544 771.2 539.7C814 535.3 857 532.7 878.5 531.3L900 530L900 601L878.5 601C857 601 814 601 771.2 601C728.3 601 685.7 601 642.8 601C600 601 557 601 514.2 601C471.3 601 428.7 601 385.8 601C343 601 300 601 257.2 601C214.3 601 171.7 601 128.8 601C86 601 43 601 21.5 601L0 601Z" fill="#15af4b"></path></svg>